<svg width="96" height="96" viewBox="0 0 96 96" fill="none" xmlns="http://www.w3.org/2000/svg">
<g filter="url(#filter0_d_211_243)">
<rect x="11" y="11" width="70" height="70" rx="35" fill="#F2EEE9" fill-opacity="0.7" shape-rendering="crispEdges"/>
</g>
<g clip-path="url(#clip0_211_243)">
<path d="M47.1771 34.1832C46.526 33.524 45.4688 33.524 44.8177 34.1832L36.4844 42.6207C35.8333 43.2799 35.8333 44.3504 36.4844 45.0096C37.1354 45.6688 38.1927 45.6688 38.8438 45.0096L44.3333 39.4461V55.625C44.3333 56.5584 45.0781 57.3125 46 57.3125C46.9219 57.3125 47.6667 56.5584 47.6667 55.625V39.4461L53.1563 45.0043C53.8073 45.6635 54.8646 45.6635 55.5156 45.0043C56.1667 44.3451 56.1667 43.2746 55.5156 42.6155L47.1823 34.178L47.1771 34.1832Z" fill="#29231D"/>
</g>
<defs>
<filter id="filter0_d_211_243" x="0" y="0" width="96" height="96" filterUnits="userSpaceOnUse" color-interpolation-filters="sRGB">
<feFlood flood-opacity="0" result="BackgroundImageFix"/>
<feColorMatrix in="SourceAlpha" type="matrix" values="0 0 0 0 0 0 0 0 0 0 0 0 0 0 0 0 0 0 127 0" result="hardAlpha"/>
<feOffset dx="2" dy="2"/>
<feGaussianBlur stdDeviation="6.5"/>
<feComposite in2="hardAlpha" operator="out"/>
<feColorMatrix type="matrix" values="0 0 0 0 0 0 0 0 0 0 0 0 0 0 0 0 0 0 0.25 0"/>
<feBlend mode="normal" in2="BackgroundImageFix" result="effect1_dropShadow_211_243"/>
<feBlend mode="normal" in="SourceGraphic" in2="effect1_dropShadow_211_243" result="shape"/>
</filter>
<clipPath id="clip0_211_243">
<rect width="20" height="27" fill="white" transform="translate(36 32)"/>
</clipPath>
</defs>
</svg>
