<svg width="459" height="95" viewBox="0 0 459 95" fill="none" xmlns="http://www.w3.org/2000/svg">
<path d="M1.41561e-07 58.1C1.41561e-07 51.4333 1.6 45.3333 4.8 39.8C8.06667 34.2 12.5667 29.7667 18.3 26.5C24.0333 23.2333 30.4333 21.6 37.5 21.6H41.3C47.2333 21.6 52.7333 22.8 57.8 25.2C62.8667 27.5333 67.1333 30.8 70.6 35C74.0667 39.2 76.4333 44 77.7 49.4L73.1 50.3C70.3667 46.9667 66.2 44.2667 60.6 42.2C55 40.1333 48.8333 39.1 42.1 39.1H36.7C30.5667 39.1 24.9 39.9667 19.7 41.7C14.5 43.3667 10.3333 45.6667 7.2 48.6C4.13333 51.4667 2.6 54.6333 2.6 58.1C2.6 61.5 4.13333 64.6667 7.2 67.6C10.3333 70.4667 14.5 72.7667 19.7 74.5C24.9 76.1667 30.5667 77 36.7 77H42.1C48.8333 77 55 75.9667 60.6 73.9C66.2 71.8333 70.3667 69.1333 73.1 65.8L77.7 66.7C76.3667 72.0333 74 76.8 70.6 81C67.2 85.2 62.9667 88.5 57.9 90.9C52.8333 93.3 47.3 94.5 41.3 94.5H37.5C30.4333 94.5 24.0333 92.8667 18.3 89.6C12.6333 86.3333 8.16667 81.9333 4.9 76.4C1.63333 70.8 1.41561e-07 64.7 1.41561e-07 58.1ZM150.738 93H147.838V66.7H86.6383V93H83.7383V23H86.6383V49.3H147.838V23H150.738V93ZM189.038 23H207.438L240.238 93H237.038L225.338 68H185.638L173.638 93H155.238L189.038 23ZM205.738 26.4L187.038 65.1H223.938L205.738 26.4ZM317.573 87.1C317.573 89.1 316.807 90.8333 315.273 92.3C313.807 93.7667 312.107 94.5 310.173 94.5C306.773 94.5 303.94 93.8333 301.673 92.5C299.407 91.1 297.573 89.3 296.173 87.1C294.773 84.9 293.24 81.9667 291.573 78.3C289.907 74.7667 288.54 72.0667 287.473 70.2L284.373 63.6H247.673V93H244.773V23H247.673V23.1H280.673C288.607 23.1 294.44 23.9333 298.173 25.6C301.973 27.2667 304.473 29.9333 305.673 33.6C306.873 37.2667 307.473 42.7667 307.473 50.1C307.14 54.3667 305.507 57.7 302.573 60.1C299.707 62.4333 296.107 63.6 291.773 63.6H287.573L294.773 78.5C296.173 81.4333 297.573 83.9667 298.973 86.1C300.44 88.1667 302.04 89.6333 303.773 90.5C303.24 89.4333 302.973 88.3333 302.973 87.2C302.973 85.1333 303.673 83.4 305.073 82C306.54 80.6 308.273 79.9 310.273 79.9C312.273 79.9 313.973 80.6 315.373 82C316.84 83.4 317.573 85.1 317.573 87.1ZM291.773 60.7C295.24 60.7 298.24 59.7667 300.773 57.9C303.307 56.0333 304.573 53.4667 304.573 50.2C304.573 46.8667 303.14 44.4333 300.273 42.9C297.473 41.3 293.873 40.5 289.473 40.5H247.673V60.7H291.773ZM322.117 23H325.017V75.5H376.917V93H322.117V23ZM392.557 2.4C394.157 3.93333 394.957 5.83333 394.957 8.1C394.957 10.3 394.157 12.2 392.557 13.8C391.024 15.3333 389.157 16.1 386.957 16.1C384.757 16.1 382.857 15.3333 381.257 13.8C379.724 12.2 378.957 10.3 378.957 8.1C378.957 5.83333 379.724 3.93333 381.257 2.4C382.857 0.799995 384.757 -6.67572e-06 386.957 -6.67572e-06C389.157 -6.67572e-06 391.024 0.799995 392.557 2.4ZM385.457 23H388.357V93H385.457V23ZM458.473 75.5V93H398.973V23H458.473V40.5H401.673V56.6H450.273V59.5H401.673V75.5H458.473Z" fill="#29231D"/>
</svg>
