<svg width="13" height="13" viewBox="0 0 13 13" fill="none" xmlns="http://www.w3.org/2000/svg">
<path d="M1.11909 0.866089C0.500094 0.866089 0 1.2857 0 1.80508C0 2.32447 0.500094 2.74408 1.11909 2.74408H11.1909C11.8099 2.74408 12.31 2.32447 12.31 1.80508C12.31 1.2857 11.8099 0.866089 11.1909 0.866089H1.11909ZM1.11909 5.56107C0.500094 5.56107 0 5.98068 0 6.50006C0 7.01944 0.500094 7.43906 1.11909 7.43906H11.1909C11.8099 7.43906 12.31 7.01944 12.31 6.50006C12.31 5.98068 11.8099 5.56107 11.1909 5.56107H1.11909ZM1.11909 10.256C0.500094 10.256 0 10.6757 0 11.195C0 11.7144 0.500094 12.134 1.11909 12.134H11.1909C11.8099 12.134 12.31 11.7144 12.31 11.195C12.31 10.6757 11.8099 10.256 11.1909 10.256H1.11909Z" fill="#F0EDE5"/>
</svg>
