<svg width="13" height="13" viewBox="0 0 13 13" fill="none" xmlns="http://www.w3.org/2000/svg">
<path d="M1.11909 0.866028C0.500094 0.866028 0 1.28564 0 1.80502C0 2.3244 0.500094 2.74402 1.11909 2.74402H11.1909C11.8099 2.74402 12.31 2.3244 12.31 1.80502C12.31 1.28564 11.8099 0.866028 11.1909 0.866028H1.11909ZM1.11909 5.561C0.500094 5.561 0 5.98062 0 6.5C0 7.01938 0.500094 7.439 1.11909 7.439H11.1909C11.8099 7.439 12.31 7.01938 12.31 6.5C12.31 5.98062 11.8099 5.561 11.1909 5.561H1.11909ZM1.11909 10.256C0.500094 10.256 0 10.6756 0 11.195C0 11.7144 0.500094 12.134 1.11909 12.134H11.1909C11.8099 12.134 12.31 11.7144 12.31 11.195C12.31 10.6756 11.8099 10.256 11.1909 10.256H1.11909Z" fill="#29231D"/>
</svg>
